<?xml version="1.0" encoding="utf-8"?>
<!-- Generator: Adobe Illustrator 21.0.0, SVG Export Plug-In . SVG Version: 6.00 Build 0)  -->
<svg version="1.1" id="Слой_1" xmlns="http://www.w3.org/2000/svg" xmlns:xlink="http://www.w3.org/1999/xlink" x="0px" y="0px"
	 viewBox="0 0 960.4 960.4" style="enable-background:new 0 0 960.4 960.4;" xml:space="preserve">
<style type="text/css">
	.st0{fill:#363636;}
</style>
<g>
	<path class="st0" d="M869.9,229.7L648.7,410.9l-62-180.5L342,411.1L293.6,230L19.8,423.3c-3.1,2.2-5.2,5.5-5.8,9.2
		c-0.6,3.8,0.2,7.5,2.4,10.7c2.2,3.1,5.5,5.2,9.3,5.8c3.8,0.6,7.5-0.2,10.6-2.4l240.4-169.7l48.6,182l247.1-182.5L635,459.1
		l222.1-181.9l61.8,166.3c2.7,7.4,11,11.1,18.4,8.4c7.4-2.8,11.1-11,8.4-18.4L869.9,229.7z"/>
	<path class="st0" d="M869.9,501.3L648.7,682.5l-62-180.5L342,682.7l-48.4-181.1L19.8,694.9c-6.4,4.5-8,13.5-3.4,19.9
		c2.2,3.1,5.5,5.2,9.2,5.8c3.7,0.6,7.5-0.2,10.6-2.4l240.4-169.7l48.6,182l247.1-182.4L635,730.7l222.1-181.9L918.9,715
		c2.8,7.4,11,11.1,18.4,8.4c7.4-2.8,11.1-11,8.4-18.4L869.9,501.3z"/>
</g>
</svg>
