<?xml version="1.0" encoding="utf-8"?>
<!-- Generator: Adobe Illustrator 21.0.0, SVG Export Plug-In . SVG Version: 6.00 Build 0)  -->
<svg version="1.1" id="Слой_1" xmlns="http://www.w3.org/2000/svg" xmlns:xlink="http://www.w3.org/1999/xlink" x="0px" y="0px"
	 viewBox="0 0 960.4 960.4" style="enable-background:new 0 0 960.4 960.4;" xml:space="preserve">
<style type="text/css">
	.st0{fill:#383838;}
</style>
<path class="st0" d="M724.7,143.4L724.7,143.4c-47,4.8-131.9,34.1-172.1,176.2c-40.2,141.9-62.5,244-74.8,343.2
	c-12.3-99.2-34.6-201.3-74.8-343.2c-30.8-109-98.2-174-184.8-178.4c-71.3-3.6-143.5,36.3-164.3,91c-20.7,54.7-17.7,115,7.7,153.7
	c18.3,27.9,47,41.7,80.7,39.1c93.1-7.3,90.2-74.8,90.2-75.5c-0.4-8.5-6.9-14.6-14.9-14.3c-7.7,0.4-13.8,7.5-13.6,15.8
	c0,1.6,0.3,38.4-63.8,43.5c-23.7,1.8-42.8-7.2-55.4-26.3c-19.6-29.8-21.5-79.9-4.6-124.5c14.1-37.3,70.4-75.4,136.5-72
	c43.4,2.2,121.7,25.5,158.9,156.8c68.9,243.4,82.3,359.7,87.8,544c0,0.9,0.2,1.6,0.4,2.1l0.2,1c0.1,0.6,0.2,1.3,0.5,2.1
	c0.4,0.9,0.8,1.7,1.2,2.3l0.5,0.8c0.3,0.5,0.6,1.1,1.2,1.7c0.7,0.7,1.4,1.2,1.9,1.6l0.8,0.6c0.4,0.4,1,0.8,1.8,1.2
	c0.9,0.5,1.9,0.6,2.6,0.8l1.2-3.1h0l-0.4,3.3c0.4,0.2,1.1,0.4,2,0.4l0.1-3.2l0.8,3.2c0.9,0,1.5-0.3,2-0.4l-0.5-3.2l0,0l1.3,3
	c0.7-0.1,1.6-0.3,2.6-0.8c0.7-0.4,1.3-0.8,1.7-1.2l0.8-0.6c0.6-0.4,1.3-0.9,1.9-1.6c0.5-0.6,0.9-1.2,1.2-1.7l0.5-0.8
	c0.4-0.6,0.9-1.3,1.2-2.3c0.3-0.8,0.4-1.5,0.5-2.1l0.2-1c0.1-0.5,0.3-1.3,0.4-2.1c5.5-184.3,18.9-300.6,87.8-544
	c26.2-92.7,78.7-147.7,147.6-154.7c65-6.6,129.2,31.5,148.4,71.3c20.1,41.6,21.1,86.7,2.7,117.7c-13.5,22.6-35.9,34-63.1,31.8
	c-64-5-63.8-41.9-63.8-43.4c0.4-8.3-5.6-15.5-13.3-15.9c-3.5-0.3-7.1,0.9-9.9,3.3c-3.1,2.7-5,6.7-5.3,11c0,0.7-2.9,68.2,90.2,75.5
	c37.6,2.9,70.1-13.8,89.2-45.8c23.9-40.1,23.4-96.9-1.4-148.2C877.8,182.6,803.7,135.3,724.7,143.4z"/>
</svg>
