<?xml version="1.0" encoding="utf-8"?>
<!-- Generator: Adobe Illustrator 21.0.0, SVG Export Plug-In . SVG Version: 6.00 Build 0)  -->
<svg version="1.1" id="Слой_1" xmlns="http://www.w3.org/2000/svg" xmlns:xlink="http://www.w3.org/1999/xlink" x="0px" y="0px"
	 viewBox="0 0 960.4 960.4" style="enable-background:new 0 0 960.4 960.4;" xml:space="preserve">
<style type="text/css">
	.st0{fill:#363636;}
</style>
<g>
	<path class="st0" d="M172.4,585.1c79.3,0,143.8-64.5,143.8-143.7c0-69.1-50.2-128.8-117.7-141.2c9.8-8.8,25.2-20.6,47.5-32.1
		c43.3-22.4,121.9-48.5,250.1-45.6c246.5,5.6,379.7,117.7,381,118.8c5,4.3,13.2,3.8,17.5-1.2c4.5-5.2,3.9-13-1.2-17.5
		c-5.6-4.9-140-119.1-396.7-124.9c-99.1-2.3-182.3,11.4-247.1,40.8c-50.1,22.7-74.7,48.5-83.6,59.6
		c-77.1,3.4-137.3,66.2-137.3,143.4C28.7,520.6,93.1,585.1,172.4,585.1z M172.4,322.5c65.6,0,118.9,53.3,118.9,118.9
		c0,65.5-53.3,118.9-118.9,118.9S53.5,506.9,53.5,441.4C53.5,375.8,106.9,322.5,172.4,322.5z"/>
	<path class="st0" d="M753.9,392.3c-79.3,0-143.8,64.5-143.8,143.8c0,69.1,50.2,128.8,117.7,141.2c-9.8,8.8-25.2,20.6-47.5,32.1
		C637,731.8,558.5,758,430.2,755c-246.8-5.6-379.7-117.7-381-118.8c-5.2-4.5-13-4-17.5,1.2c-4.5,5.2-3.9,13,1.2,17.5
		c5.6,4.9,139.8,119.1,396.7,124.9c7,0.2,13.8,0.2,20.5,0.2c211.5,0,290.1-75.6,310.2-100.6c77.1-3.4,137.3-66.2,137.3-143.4
		C897.7,456.8,833.2,392.3,753.9,392.3z M753.9,655C688.4,655,635,601.6,635,536.1c0-65.6,53.3-118.9,118.9-118.9
		c65.5,0,118.9,53.3,118.9,118.9C872.8,601.6,819.5,655,753.9,655z"/>
</g>
</svg>
