<?xml version="1.0" encoding="utf-8"?>
<!-- Generator: Adobe Illustrator 21.0.0, SVG Export Plug-In . SVG Version: 6.00 Build 0)  -->
<svg version="1.1" id="Слой_1" xmlns="http://www.w3.org/2000/svg" xmlns:xlink="http://www.w3.org/1999/xlink" x="0px" y="0px"
	 viewBox="0 0 960.4 960.4" style="enable-background:new 0 0 960.4 960.4;" xml:space="preserve">
<style type="text/css">
	.st0{fill:#363636;}
</style>
<path class="st0" d="M163.5,71.3l3.9,0c41.3-0.1,98.1-0.3,123.3,93.2c4.3,16,7.8,42.4,10.4,78.2l0.1,2.2l0.1,0.6
	c12.1,174.5-0.4,512.6-0.6,516c-0.3,8.7,6.5,16,15.8,16.4c8.5,0,15.5-6.7,15.8-15.2c0.5-13.9,12.8-343.1,0.4-519.3l0-0.1l0-0.5
	c-0.1-1-5.6-96.4,39.6-144.6c17-18.1,38.7-26.9,66.3-26.9c22.8,0,41.5,7.6,57.1,23.3c46.2,46.5,46.7,144.8,46.7,148.9
	c-1.2,50-11.1,489.2-3.5,521.5c2,10.8,6,22.8,11.7,34.8c-10.5,22.5-16.8,42.1-19.1,53c-5.7,26.3-27.3,38.5-64.1,36.2
	c-8.7-0.5-16.2,6.2-16.7,14.8c-0.5,8.7,6.1,16.2,14.8,16.7c3.4,0.2,6.7,0.3,9.9,0.3c46.9,0,78.6-22.4,87-61.4
	c1.5-6.8,4.6-16.5,8.6-26.7c30.3,39.7,74.9,67.8,126.4,79.6c59.9,13.7,115.1,4.2,151.5-26c30.1-25.1,45-61.9,43.1-106.6
	c-1.6-36.3-14.4-65.1-38.3-85.6c-42.3-36.5-106.1-35.9-140.4-32.3C644,669,598,719.1,570.7,762.7c-0.4-1.4-0.7-2.8-0.9-4.2
	c-5.1-22.1-0.3-319.8,4.2-514.7c0-4.7,0.4-114.9-55.8-171.6c-21.5-21.7-48.2-32.6-79.5-32.6c-36.3,0-66.4,12.4-89.3,36.9
	c-14.6,15.5-26,35.9-34.2,60.6c-34.8-97.7-107.9-97.7-147.7-97.5l-3.8,0c-8.7,0-15.8,7.1-15.8,15.8
	C147.8,64.2,154.8,71.3,163.5,71.3z M716.5,693.1L716.5,693.1c23.5-2.5,81.9-5,116.5,24.8c17,14.6,26.2,35.8,27.3,63
	c1.5,34.4-9.5,62.4-31.7,80.9c-28.7,23.9-74,31-124.2,19.5c-68.6-15.7-103.1-57.7-118.1-82.5C606.1,761.7,648.6,700.3,716.5,693.1z"
	/>
</svg>
