<?xml version="1.0" encoding="utf-8"?>
<!-- Generator: Adobe Illustrator 21.0.0, SVG Export Plug-In . SVG Version: 6.00 Build 0)  -->
<svg version="1.1" id="Слой_1" xmlns="http://www.w3.org/2000/svg" xmlns:xlink="http://www.w3.org/1999/xlink" x="0px" y="0px"
	 viewBox="0 0 960.4 960.4" style="enable-background:new 0 0 960.4 960.4;" xml:space="preserve">
<style type="text/css">
	.st0{fill:#363636;}
</style>
<path class="st0" d="M841.8,786.9c-4.1,0.2-7.8,2-10.5,5c-2.7,3-4.1,6.9-3.9,11c0.8,15.5-24.5,60.4-66.5,84.5
	c-24.7,14.2-63.1,25.3-105.4-2.4c-58.9-38.5-76-93.2,11.4-258.8c13.2-25,26.6-48.4,39.7-71.1c47.7-83.2,89-155.1,89-250
	c0-129.2-61.3-230.4-160.1-264C527.5,4.4,423.7,44.8,357.6,149.3c-52.3,82.7-38.3,211.8-28.4,269.3c-16.6-5-33.5-7.5-50.5-7.5
	c-97.1,0-176.2,79-176.2,176.2c0,97.1,79,176.2,176.2,176.2c97.1,0,176.2-79,176.2-176.2c0-64.5-35.2-123.6-92-154.6
	c-6.8-33.2-33.2-182.2,20.5-267c58.9-93.1,147.2-128,242.2-95.6C711.5,99.2,765,189.3,765,305.1c0,86.8-39.4,155.4-84.9,234.9
	c-13.2,22.9-26.8,46.6-40.2,72.1c-59.4,112.6-108.4,228.5-1.1,298.6c22.3,14.6,46.1,22,70.6,22c0,0,0,0,0,0c22.6,0,45-6.3,66.6-18.7
	c48.6-27.9,83.3-82.4,81.8-112.5c-0.2-4-2-7.8-5.1-10.6C849.7,788.1,845.7,786.7,841.8,786.9z M424.4,587.2
	c0,80.3-65.4,145.7-145.7,145.7S133,667.5,133,587.2s65.4-145.7,145.7-145.7S424.4,506.9,424.4,587.2z"/>
</svg>
