<?xml version="1.0" encoding="utf-8"?>
<!-- Generator: Adobe Illustrator 21.0.0, SVG Export Plug-In . SVG Version: 6.00 Build 0)  -->
<svg version="1.1" id="Слой_1" xmlns="http://www.w3.org/2000/svg" xmlns:xlink="http://www.w3.org/1999/xlink" x="0px" y="0px"
	 viewBox="0 0 960.4 960.4" style="enable-background:new 0 0 960.4 960.4;" xml:space="preserve">
<style type="text/css">
	.st0{fill:#363636;}
</style>
<g>
	<path class="st0" d="M914.5,570.9H656.1c63.8-51.5,101.6-130.2,101.6-212.4c0-150.5-122.5-273-273-273s-273,122.5-273,273
		c0,82.3,37.8,160.9,101.6,212.4H45.9c-8.3,0-15,6.7-15,15c0,8.3,6.7,15,15,15l317.1,0c1.7,0,3.4-0.4,5.3-1c0.4-0.1,0.7-0.3,1-0.4
		c3-1.4,5.4-3.6,7-6.4l0.2-0.7c0.4-0.8,0.5-1.5,0.7-2.1l-3.3-0.8l3.5,0c0.2-0.9,0.5-1.8,0.4-2.3l0.2-1.2c0-0.8-0.2-1.4-0.3-1.8
		c-0.1-1-0.3-2.1-0.7-3.3c-0.3-0.8-0.7-1.5-1.3-2.6c-0.4-0.7-0.9-1.5-1.6-2.3c-0.8-0.8-1.6-1.4-2.5-2.1c-0.3-0.3-0.8-0.7-1.5-1.1
		c-79.1-42.4-128.3-124.5-128.3-214.2c0-134,109-242.9,242.9-242.9s242.9,109,242.9,242.9c0,89.2-48.7,171-127.2,213.6l-0.3,0.2
		c-5.3,2.5-8.7,7.8-8.7,13.7c0,8.3,6.7,15,15,15h308c8.3,0,15-6.7,15-15C929.6,577.6,922.8,570.9,914.5,570.9z"/>
	<path class="st0" d="M914.5,742.8H45.9c-8.3,0-15,6.7-15,15c0,8.3,6.7,15,15,15h868.7c8.3,0,15-6.7,15-15
		C929.6,749.5,922.8,742.8,914.5,742.8z"/>
</g>
</svg>
