<?xml version="1.0" encoding="utf-8"?>
<!-- Generator: Adobe Illustrator 21.0.0, SVG Export Plug-In . SVG Version: 6.00 Build 0)  -->
<svg version="1.1" id="Слой_1" xmlns="http://www.w3.org/2000/svg" xmlns:xlink="http://www.w3.org/1999/xlink" x="0px" y="0px"
	 viewBox="0 0 960.4 960.4" style="enable-background:new 0 0 960.4 960.4;" xml:space="preserve">
<style type="text/css">
	.st0{fill:#363636;}
</style>
<path class="st0" d="M157.7,63.8c1.2,0.4,108.6,40.2,175.2,199.1c21.2,50.5,31.6,111.2,31.1,180.4H182.8c-8,0-14.6,6.5-14.6,14.6
	c0,8,6.5,14.6,14.6,14.6H363c-5.6,111.7-36.1,205.8-49.3,231.8C241.8,846.2,177.5,898.4,176.9,899c-6.3,5-7.4,14.2-2.4,20.5
	c4.8,6.1,14.4,7.2,20.5,2.4c2.8-2.2,69.4-55.6,144.8-204.3c14.3-28.3,47.2-128.8,52.8-245h175.3c5.6,116.2,38.5,216.7,52.8,245
	c75.3,148.7,142,202.1,144.8,204.3c2.6,2,5.8,3.1,9,3.1c4.5,0,8.7-2,11.4-5.5c5-6.3,3.9-15.5-2.4-20.5c-0.6-0.5-65.1-53-136.8-194.6
	c-13.2-26-43.6-120.1-49.3-231.8H773c8,0,14.6-6.5,14.6-14.6c0-8-6.5-14.6-14.6-14.6H596.5c-0.5-69.2,9.9-129.9,31.1-180.4
	c66.5-159,174.1-198.8,175.2-199.1c7.6-2.6,11.6-10.9,9-18.5c-1.3-3.7-3.9-6.7-7.4-8.4c-3.5-1.7-7.5-1.9-11.1-0.7
	c-4.9,1.7-120.4,43.2-192.5,215.4c-22.8,54.4-34.1,118.9-33.6,191.7H393.4c0.4-72.8-10.9-137.3-33.7-191.7
	C287.6,79.4,172.1,37.9,167.2,36.2c-7.6-2.6-15.9,1.4-18.5,9C146.1,52.8,150.1,61.1,157.7,63.8z"/>
</svg>
