<?xml version="1.0" encoding="utf-8"?>
<!-- Generator: Adobe Illustrator 21.0.0, SVG Export Plug-In . SVG Version: 6.00 Build 0)  -->
<svg version="1.1" id="Слой_1" xmlns="http://www.w3.org/2000/svg" xmlns:xlink="http://www.w3.org/1999/xlink" x="0px" y="0px"
	 viewBox="0 0 960.4 960.4" style="enable-background:new 0 0 960.4 960.4;" xml:space="preserve">
<style type="text/css">
	.st0{fill:#363636;}
</style>
<path class="st0" d="M927.1,54.4L927,54l-3.8,0.7l3.7-1.3c-0.1-0.7-0.2-1.6-0.8-2.9c-0.8-2-2.1-3.5-2.6-4l-1.3-1.6
	c-2.4-2.3-5.5-3.7-9.4-4.3c-0.4-0.1-0.9-0.2-1.4-0.3l-398.1-0.1c-9.3,0-16.8,7.6-16.8,16.8c0,9.3,7.6,16.8,16.8,16.8h355.8
	L400.5,529.2L238.7,369c-6.6-6.5-17.3-6.5-23.8,0.1c-6.5,6.6-6.5,17.3,0.1,23.8l161.3,159.7L27.8,891.2c-3.2,3.1-5,7.3-5.1,11.8
	c-0.1,4.5,1.6,8.8,4.8,12c3.2,3.3,7.5,5.1,12.1,5.1c4.4,0,8.6-1.7,11.7-4.7l349-339l178.6,176.8c6.4,6.3,17.5,6.3,23.8-0.1
	c6.5-6.6,6.5-17.3-0.1-23.8L424.4,552.9L895,95.9l9.1,331.4c0.3,9.2,7.6,16.4,17.3,16.4h0c9.3-0.3,16.6-8,16.4-17.3L927.6,56.7
	C927.5,55.7,927.3,55,927.1,54.4z"/>
</svg>
