<?xml version="1.0" encoding="utf-8"?>
<!-- Generator: Adobe Illustrator 21.0.0, SVG Export Plug-In . SVG Version: 6.00 Build 0)  -->
<svg version="1.1" id="Слой_1" xmlns="http://www.w3.org/2000/svg" xmlns:xlink="http://www.w3.org/1999/xlink" x="0px" y="0px"
	 viewBox="0 0 960.4 960.4" style="enable-background:new 0 0 960.4 960.4;" xml:space="preserve">
<style type="text/css">
	.st0{fill:#363636;}
</style>
<path class="st0" d="M124.3,85.4l3.6,0c38.2-0.2,90.4-0.4,113.6,85.8c4,14.7,7.2,39,9.5,72l0.1,2.1l0.1,0.6
	c11.1,160.7-0.4,472.3-0.5,475.4c-0.3,8,6,14.8,14.5,15.1c7.9,0,14.2-6.1,14.5-14c0.5-12.8,11.8-316.3,0.4-478.4l0-0.1l0-0.5
	c-0.1-0.9-5.3-88.7,36.5-133.2c15.7-16.7,35.7-24.8,61.1-24.8c21,0,38.2,7,52.6,21.4c42.9,43.1,43,136.4,43,137.4l-3.5,477.6
	c-0.1,8,6.4,14.6,14.5,14.7c8,0,14.5-6.5,14.5-14.4l3.5-476.6c0.1-0.5,0.2-1.1,0.2-2c-0.1-0.9-5-89,36.5-133.2
	c15.7-16.7,35.6-24.8,61.1-24.8c21,0,38.2,7,52.6,21.4c43.1,43.4,43,136.4,43,137.4l-3.4,476.3c-0.3,3.5-7.5,87,32.4,131.3
	c15.8,17.6,36.6,26.7,61.7,27h37.9c-12.9,8.5-27.9,18.2-42.6,27.6c-3.3,2.1-5.5,5.3-6.4,9.1c-0.8,3.8-0.1,7.7,1.9,11
	c2.7,4.2,7.3,6.7,12.3,6.7c2.8,0,5.5-0.8,7.8-2.3c86-54.9,86-55.9,86-65.5c0-9.1,0-10.3-85.5-69.7c-6.6-4.6-15.7-2.9-20.2,3.7
	c-4.6,6.6-2.9,15.7,3.6,20.2c14.6,10.2,29.7,20.8,42.7,30h-37.3c-16.8-0.3-30-5.9-40.3-17.4c-29.9-33.2-25.6-102.3-25-110.5
	l3.5-477.6c0-4.3,0.2-106-51.4-158c-19.8-20-44.5-30.1-73.3-30.1c-33.4,0-61.1,11.4-82.3,34c-13.5,14.4-24.1,33.3-31.7,56.3
	c-8.7-25.1-20.6-45.4-35.3-60.2c-19.8-20-44.4-30.1-73.2-30.1c-33.4,0-61.1,11.4-82.3,34c-13.4,14.3-24,33-31.5,55.8
	c-32-90.1-99.5-89.9-136.1-89.8l-3.5,0c-8,0-14.5,6.5-14.5,14.5C109.7,78.9,116.2,85.4,124.3,85.4z"/>
</svg>
