<?xml version="1.0" encoding="utf-8"?>
<!-- Generator: Adobe Illustrator 21.0.0, SVG Export Plug-In . SVG Version: 6.00 Build 0)  -->
<svg version="1.1" id="Слой_1" xmlns="http://www.w3.org/2000/svg" xmlns:xlink="http://www.w3.org/1999/xlink" x="0px" y="0px"
	 viewBox="0 0 960.4 960.4" style="enable-background:new 0 0 960.4 960.4;" xml:space="preserve">
<style type="text/css">
	.st0{fill:#363636;}
</style>
<path class="st0" d="M903.1,179.6c-0.2-0.8-16.7-79.9-107.6-64.8c-47.3,7.9-76.5,63.5-107.4,122.4c-17,32.5-34.7,66.1-55.4,91.4
	c-51.9,63.2-143.6,55.8-147.7,55.4l-13.5,0l-1.2,0.1c-0.9,0.1-94.4,9.1-147.4-55.4c-20.7-25.3-38.4-58.8-55.4-91.4
	c-30.9-58.9-60.1-114.5-107.4-122.4c-91.1-15.2-107.4,64-107.6,64.8c-1.3,6.5,3,12.9,9.5,14.2c3.1,0.7,6.3,0,9-1.7
	c2.7-1.8,4.6-4.5,5.2-7.7c0.5-2.3,12.5-56.8,79.8-45.6c35.4,5.9,61.9,56.4,90,109.8c17.6,33.6,35.8,68.2,58.1,95.5
	c29.9,36.4,69.8,52.4,101.2,59.4c-92.2,30.9-155.6,118.3-155.6,216.2c0,125.8,102.3,228.1,228.1,228.1
	c125.8,0,228.1-102.3,228.1-228.1c0-98-63.5-185.4-155.8-216.3c31.5-6.9,71.4-22.9,101.3-59.3c22.3-27.2,40.5-61.9,58.1-95.5
	c28-53.4,54.5-103.9,90-109.8c67.4-11.2,79.3,43.3,79.8,45.6c1.3,6.5,7.7,10.8,14.2,9.5c3.2-0.6,5.9-2.4,7.7-5.1
	C903,186,903.7,182.7,903.1,179.6z M681.7,619.5c0,112.4-91.5,203.9-203.9,203.9s-203.9-91.5-203.9-203.9
	c0-112.4,91.5-203.9,203.9-203.9S681.7,507.1,681.7,619.5z"/>
</svg>
