<?xml version="1.0" encoding="utf-8"?>
<!-- Generator: Adobe Illustrator 21.0.0, SVG Export Plug-In . SVG Version: 6.00 Build 0)  -->
<svg version="1.1" id="Слой_1" xmlns="http://www.w3.org/2000/svg" xmlns:xlink="http://www.w3.org/1999/xlink" x="0px" y="0px"
	 viewBox="0 0 960.4 960.4" style="enable-background:new 0 0 960.4 960.4;" xml:space="preserve">
<style type="text/css">
	.st0{fill:#363636;}
</style>
<path class="st0" d="M71.5,58.1l4,0c42.1-0.2,99.8-0.2,125.4,94.8c4.4,16.3,7.9,43.1,10.5,79.6c0.1,1.1,0.1,1.9,0.1,2.3l0.1,0.6
	c12.3,177.6-0.5,521.6-0.6,525c-0.2,4.3,1.4,8.4,4.3,11.5c2.9,3.1,6.9,5,11.8,5.1c8.7,0,15.7-6.8,16.1-15.5
	c0.5-14.2,13-349.1,0.5-528.3l0-0.1l0-0.5c-0.1-1-5.1-98.8,40.4-147.2c17.3-18.4,39.3-27.3,67.4-27.3c23.2,0,42.2,7.7,58.1,23.7
	c47,47.3,47.5,147.5,47.5,151.7l-3.9,527.4c0,4.3,1.6,8.3,4.6,11.4c3,3.1,7,4.8,11.4,4.8c8.8,0,16-7.2,16.1-15.9l3.9-526.3
	c0.1-0.5,0.3-1.3,0.2-2.2c-0.1-1-5.2-98.6,40.3-147.1C547,67,569.1,58.1,597.2,58.1c23.2,0,42.2,7.7,58.1,23.7
	c47.6,47.9,47.5,150.7,47.5,151.7l-3.7,508.7c-52.5,40.8-107.5,69.1-159.2,81.9c-4.2,1-7.7,3.6-9.9,7.3c-2.2,3.7-2.9,8-1.8,12.2
	c1.8,7.2,8.2,12.2,15.6,12.2c0,0,0,0,0,0c1.3,0,2.6-0.2,3.9-0.5c48.6-12,100.6-37.1,150.6-72.6c0.2,33.6,5.8,87.9,36.5,122
	c17.4,19.4,40.3,29.5,68.2,29.9c8.7,0,15.9-7.1,16.1-15.8c0.1-8.9-7-16.2-15.8-16.3c-18.6-0.3-33.1-6.5-44.5-19.2
	c-33-36.7-28.3-113-27.6-122l0-3.6c50.5-41.3,95.4-91.3,130-144.7c65.6-101.3,87.6-263.1,46-339.6c-15.9-29.3-39.9-44.7-69.4-44.7
	c-49.9,0-82.9,27.4-103.2,53.9l0.4-48.6c0-4.8,0.2-117.1-56.8-174.5c-21.9-22-49.1-33.2-80.9-33.2c-36.9,0-67.5,12.6-90.9,37.5
	c-14.9,15.9-26.6,36.7-35,62.1c-9.6-27.8-22.7-50.1-39-66.5c-21.9-22-49.1-33.2-80.9-33.2c-36.9,0-67.5,12.6-90.9,37.5
	c-14.8,15.8-26.5,36.5-34.8,61.7C190.3,25.7,116,25.8,75.4,25.9l-3.8,0c-8.9,0-16.1,7.2-16.1,16.1C55.5,50.9,62.7,58.1,71.5,58.1z
	 M734,351.4c3.6-11.4,30.9-90.8,103.7-90.8c17.2,0,31,9.4,41.1,27.9c36.1,66.5,14.4,215.6-44.7,306.8
	c-27.9,43-63.3,84.3-102.7,119.7L734,351.4z"/>
</svg>
